<svg width="17" height="22" viewBox="0 0 17 22" fill="none" xmlns="http://www.w3.org/2000/svg">
<path d="M4.25 16.7895C4.25 17.2691 4.63881 17.6579 5.11842 17.6579H11.8816C12.3612 17.6579 12.75 17.2691 12.75 16.7895V16.7895C12.75 16.3099 12.3612 15.9211 11.8816 15.9211H5.11842C4.63881 15.9211 4.25 16.3099 4.25 16.7895V16.7895ZM4.25 12.1579C4.25 12.6375 4.63881 13.0263 5.11842 13.0263H11.8816C12.3612 13.0263 12.75 12.6375 12.75 12.1579V12.1579C12.75 11.6783 12.3612 11.2895 11.8816 11.2895H5.11842C4.63881 11.2895 4.25 11.6783 4.25 12.1579V12.1579ZM2.04878 22C1.47626 22 0.991667 21.7974 0.595 21.3921C0.198333 20.9868 0 20.4917 0 19.9068V2.09318C0 1.50825 0.198333 1.01316 0.595 0.607895C0.991667 0.202632 1.47626 0 2.04878 0H10.6295C10.8984 0 11.156 0.108322 11.3441 0.300513L16.7146 5.78741C16.8976 5.97429 17 6.22539 17 6.4869V19.9068C17 20.4917 16.8017 20.9868 16.405 21.3921C16.0083 21.7974 15.5237 22 14.9512 22H2.04878ZM11.2 6.94737C10.6477 6.94737 10.2 6.49965 10.2 5.94737V1.73684H2.04878C1.96152 1.73684 1.88162 1.77399 1.80908 1.84829C1.73636 1.92239 1.7 2.00403 1.7 2.09318V19.9068C1.7 19.996 1.73636 20.0776 1.80908 20.1517C1.88162 20.226 1.96152 20.2632 2.04878 20.2632H14.9512C15.0385 20.2632 15.1184 20.226 15.1909 20.1517C15.2636 20.0776 15.3 19.996 15.3 19.9068V6.94737H11.2Z" fill="#212121"/>
</svg>
