<svg width="18" height="22" viewBox="0 0 18 22" fill="none" xmlns="http://www.w3.org/2000/svg">
<path d="M4.57271 16.3857C4.57271 16.9056 4.99409 17.3269 5.51389 17.3269H12.4817C13.0015 17.3269 13.4229 16.9056 13.4229 16.3857V16.3857C13.4229 15.8659 13.0015 15.4446 12.4817 15.4446H5.51389C4.99409 15.4446 4.57271 15.8659 4.57271 16.3857V16.3857ZM4.57271 11.8787C4.57271 12.3985 4.99409 12.8199 5.51389 12.8199H12.4817C13.0015 12.8199 13.4229 12.3985 13.4229 11.8787V11.8787C13.4229 11.3589 13.0015 10.9375 12.4817 10.9375H5.51389C4.99409 10.9375 4.57271 11.3589 4.57271 11.8787V11.8787ZM2.08654 22C1.51735 22 1.0273 21.7983 0.616378 21.3948C0.205459 20.9913 0 20.5102 0 19.9513V2.053C0 1.49306 0.205459 1.01091 0.616378 0.606544C1.0273 0.202181 1.51735 0 2.08654 0H11.2569C11.5189 0 11.7705 0.102859 11.9575 0.286448L17.7006 5.92534C17.8921 6.11338 18 6.3705 18 6.6389V19.9513C18 20.5102 17.7941 20.9913 17.3822 21.3948C16.9704 21.7983 16.4793 22 15.9091 22H2.08654ZM11.6029 7.20876C11.0506 7.20876 10.6029 6.76104 10.6029 6.20876V2.053H2.08654V19.9513H15.9091V7.20876H11.6029Z" fill="#212121"/>
</svg>
