<svg width="78" height="78" viewBox="0 0 78 78" fill="none" xmlns="http://www.w3.org/2000/svg">
<path d="M26.9013 56.9715L37.8444 46.0284C38.4302 45.4426 39.3799 45.4426 39.9657 46.0284L50.9088 56.9715C51.8851 57.9478 53.468 57.9478 54.4443 56.9715L56.9715 54.4443C57.9478 53.468 57.9478 51.8851 56.9715 50.9088L46.0284 39.9657C45.4426 39.3799 45.4426 38.4302 46.0284 37.8444L56.9715 26.9013C57.9478 25.925 57.9478 24.3421 56.9715 23.3658L54.4443 20.8386C53.468 19.8623 51.8851 19.8623 50.9088 20.8386L39.9657 31.7817C39.3799 32.3675 38.4302 32.3675 37.8444 31.7817L26.9013 20.8386C25.925 19.8623 24.3421 19.8623 23.3658 20.8386L20.8386 23.3658C19.8623 24.3421 19.8623 25.925 20.8386 26.9013L31.7817 37.8444C32.3675 38.4302 32.3675 39.3799 31.7817 39.9657L20.8386 50.9088C19.8623 51.8851 19.8623 53.468 20.8386 54.4444L23.3658 56.9715C24.3421 57.9478 25.925 57.9478 26.9013 56.9715ZM38.9051 76.6593C33.6783 76.6593 28.773 75.6678 24.184 73.6877C19.5854 71.7033 15.5901 69.0127 12.1938 65.6164C8.79742 62.22 6.10683 58.2248 4.12248 53.6261C2.14231 49.0372 1.15088 44.1318 1.15088 38.9051C1.15088 33.6783 2.14231 28.773 4.12248 24.184C6.10683 19.5854 8.79742 15.5901 12.1938 12.1938C15.5901 8.79742 19.5854 6.10683 24.184 4.12248C28.773 2.14231 33.6783 1.15088 38.9051 1.15088C44.1318 1.15088 49.0372 2.14231 53.6261 4.12248C58.2248 6.10683 62.22 8.79742 65.6164 12.1938C69.0127 15.5901 71.7033 19.5854 73.6877 24.184C75.6678 28.773 76.6593 33.6783 76.6593 38.9051C76.6593 44.1318 75.6678 49.0372 73.6877 53.6261C71.7033 58.2248 69.0127 62.22 65.6164 65.6164C62.22 69.0127 58.2248 71.7033 53.6261 73.6877C49.0372 75.6678 44.1318 76.6593 38.9051 76.6593Z" fill="#D53453" stroke="white"/>
</svg>
