<svg width="39" height="39" viewBox="0 0 39 39" fill="none" xmlns="http://www.w3.org/2000/svg">
<path d="M20.5355 36.6695L20.5359 36.6698C21.0309 37.1649 21.5998 37.5443 22.2413 37.8067C22.8823 38.0689 23.5527 38.2 24.2511 38.2H31.2727C33.1762 38.2 34.8107 37.5199 36.1653 36.1653C37.5199 34.8107 38.2 33.1762 38.2 31.2727V24.5455C38.2 24.0186 38.0196 23.5674 37.6579 23.2057C37.2962 22.844 36.8451 22.6636 36.3182 22.6636C35.7913 22.6636 35.3402 22.844 34.9785 23.2057C34.8464 23.3378 34.7374 23.4829 34.6525 23.6412C34.5498 23.8328 34.4211 24.0133 34.2723 24.1436C34.1247 24.2727 33.9662 24.3455 33.7955 24.3455C33.4415 24.3455 33.1545 24.0585 33.1545 23.7045V21.1818C33.1545 20.6549 32.9741 20.2038 32.6124 19.8421C32.2507 19.4804 31.7996 19.3 31.2727 19.3C30.7458 19.3 30.2947 19.4804 29.933 19.8421C29.5713 20.2038 29.3909 20.6549 29.3909 21.1818V23.7045C29.3909 24.0585 29.104 24.3455 28.75 24.3455C28.396 24.3455 28.1091 24.0585 28.1091 23.7045V19.5C28.1091 18.9731 27.9287 18.522 27.567 18.1603C27.2053 17.7986 26.7542 17.6182 26.2273 17.6182C25.7004 17.6182 25.2493 17.7986 24.8876 18.1603C24.5258 18.522 24.3455 18.9731 24.3455 19.5V23.7045C24.3455 24.0585 24.0585 24.3455 23.7045 24.3455C23.3506 24.3455 23.0636 24.0585 23.0636 23.7045V12.7727C23.0636 12.2458 22.8832 11.7947 22.5215 11.433C22.1598 11.0713 21.7087 10.8909 21.1818 10.8909C20.6549 10.8909 20.2038 11.0713 19.8421 11.433C19.4804 11.7947 19.3 12.2458 19.3 12.7727V25.1931C19.3 25.7253 18.7901 26.1091 18.2787 25.9619L16.7803 25.5305L16.7799 25.5304C16.1566 25.3523 15.5249 25.3451 14.8885 25.5079C14.2504 25.6712 13.6933 25.9909 13.2199 26.4643L13.2199 26.4642L13.2176 26.4666L12.6387 27.0648C12.184 27.5347 12.1892 28.2822 12.6504 28.7458L20.5355 36.6695ZM0.8 12.0909V18.5C0.8 19.1627 1.33726 19.7 2 19.7H8.40909C9.07183 19.7 9.60909 19.1627 9.60909 18.5V17.9773C9.60909 17.3145 9.07183 16.7773 8.40909 16.7773H5.77148L9.72636 12.8224C10.195 12.3538 10.195 11.594 9.72636 11.1253L9.37466 10.7736C8.90603 10.305 8.14624 10.305 7.67761 10.7736L3.72273 14.7285V12.0909C3.72273 11.4282 3.18547 10.8909 2.52273 10.8909H2C1.33726 10.8909 0.8 11.4282 0.8 12.0909ZM10.7736 9.37466L11.1253 9.72636C11.594 10.195 12.3538 10.195 12.8224 9.72636L16.7773 5.77148V8.40909C16.7773 9.07183 17.3145 9.60909 17.9773 9.60909H18.5C19.1627 9.60909 19.7 9.07183 19.7 8.40909V2C19.7 1.33726 19.1627 0.8 18.5 0.8H12.0909C11.4282 0.8 10.8909 1.33726 10.8909 2V2.52273C10.8909 3.18547 11.4282 3.72273 12.0909 3.72273H14.7285L10.7736 7.67761C10.305 8.14624 10.305 8.90603 10.7736 9.37466Z" fill="#D53453" stroke="#D53453" stroke-width="0.4"/>
</svg>
