<svg width="512" height="512" viewBox="0 0 512 512" fill="none" xmlns="http://www.w3.org/2000/svg">
<rect width="512" height="512" fill="#149CFF"/>
<path d="M305.738 82.8998C305.738 82.1267 305.111 81.5 304.338 81.5H207.519C206.746 81.5 206.119 82.1267 206.119 82.8998V113.307C206.119 114.08 206.746 114.706 207.519 114.706H304.338C305.111 114.706 305.738 114.08 305.738 113.307V82.8998ZM373.426 188.576C372.986 188.015 373.03 187.213 373.534 186.709L395.316 164.927C395.83 164.413 395.866 163.59 395.394 163.037C388.759 155.26 381.558 147.924 373.793 141.419C373.24 140.956 372.426 140.996 371.916 141.506L350.124 163.298C349.62 163.802 348.818 163.846 348.257 163.405C322.683 143.286 290.681 131.31 255.929 131.31C173.411 131.31 106.5 198.22 106.5 280.738C106.5 363.256 173.245 430.167 255.929 430.167C338.612 430.167 405.357 363.256 405.357 280.738C405.357 245.988 393.382 213.989 373.426 188.576ZM255.929 396.96C191.674 396.96 139.706 344.992 139.706 280.738C139.706 216.484 191.674 164.516 255.929 164.516C320.183 164.516 372.151 216.484 372.151 280.738C372.151 344.992 320.183 396.96 255.929 396.96Z" fill="white"/>
<path d="M227.267 210.889C221.969 207.482 215 211.286 215 217.585V337.844C215 344.143 221.969 347.947 227.267 344.54L320.771 284.41C325.644 281.276 325.644 274.152 320.771 271.018L227.267 210.889Z" fill="white"/>
</svg>
