<svg width="34" height="42" viewBox="0 0 34 42" fill="none" xmlns="http://www.w3.org/2000/svg">
<g clip-path="url(#clip0_1215_28)">
<path d="M4.25 42C3.08125 42 2.08073 41.5888 1.24844 40.7663C0.416146 39.9438 0 38.955 0 37.8V4.2C0 3.045 0.416146 2.05625 1.24844 1.23375C2.08073 0.41125 3.08125 0 4.25 0H20.4285C20.9548 0 21.4599 0.207478 21.8343 0.577443L33.4058 12.0128C33.786 12.3885 34 12.9008 34 13.4354V37.8C34 38.955 33.5839 39.9438 32.7516 40.7663C31.9193 41.5888 30.9188 42 29.75 42H4.25Z" fill="#212121"/>
<path d="M10.8333 33H22.1667C22.9694 33 23.6424 32.7365 24.1854 32.2094C24.7285 31.6823 25 31.0292 25 30.25V22C25 21.2208 24.7285 20.5677 24.1854 20.0406C23.6424 19.5135 22.9694 19.25 22.1667 19.25V16.5C22.1667 14.9875 21.6118 13.6927 20.5021 12.6156C19.3924 11.5385 18.0583 11 16.5 11C14.9417 11 13.6076 11.5385 12.4979 12.6156C11.3882 13.6927 10.8333 14.9875 10.8333 16.5V19.25C10.0306 19.25 9.35764 19.5135 8.81458 20.0406C8.27153 20.5677 8 21.2208 8 22V30.25C8 31.0292 8.27153 31.6823 8.81458 32.2094C9.35764 32.7365 10.0306 33 10.8333 33ZM13.6667 19.25V16.5C13.6667 15.7208 13.9382 15.0677 14.4812 14.5406C15.0243 14.0135 15.6972 13.75 16.5 13.75C17.3028 13.75 17.9757 14.0135 18.5188 14.5406C19.0618 15.0677 19.3333 15.7208 19.3333 16.5V19.25H13.6667Z" fill="#F2F2F2"/>
</g>
<defs>
<clipPath id="clip0_1215_28">
<rect width="34" height="42" fill="white"/>
</clipPath>
</defs>
</svg>
