<svg width="30" height="38" viewBox="0 0 30 38" fill="none" xmlns="http://www.w3.org/2000/svg">
<path d="M13.125 28.5H16.875V17.1H13.125V28.5ZM15 13.3C15.5312 13.3 15.9766 13.1179 16.3359 12.7538C16.6953 12.3896 16.875 11.9383 16.875 11.4C16.875 10.8617 16.6953 10.4104 16.3359 10.0462C15.9766 9.68208 15.5312 9.5 15 9.5C14.4688 9.5 14.0234 9.68208 13.6641 10.0462C13.3047 10.4104 13.125 10.8617 13.125 11.4C13.125 11.9383 13.3047 12.3896 13.6641 12.7538C14.0234 13.1179 14.4688 13.3 15 13.3ZM15 38C10.6563 36.8917 7.07031 34.3663 4.24219 30.4238C1.41406 26.4813 0 22.1033 0 17.29V5.7L15 0L30 5.7V17.29C30 22.1033 28.5859 26.4813 25.7578 30.4238C22.9297 34.3663 19.3437 36.8917 15 38Z" fill="#1C1B1F"/>
</svg>
