<svg width="39" height="39" viewBox="0 0 39 39" fill="none" xmlns="http://www.w3.org/2000/svg">
<g clip-path="url(#clip0_62_174)">
<path d="M1.45359 1.9458H37.5464V37.0542H1.45359V1.9458Z" fill="#0C0824"/>
<path d="M1.45359 1.94578H37.5464V37.0542H1.45359V1.94578ZM-0.1875 38.6953H39.1875V0.304688H-0.1875V38.6953ZM26.3583 16.0547C25.0617 16.0547 24.6187 16.7114 24.6187 17.2528C24.6187 17.8434 24.9141 18.2541 26.6536 19.1555C29.2298 20.4028 30.0286 21.5995 30.0286 23.3559C30.0286 25.9814 28.0275 27.3919 25.3205 27.3919C24.1587 27.4349 23.004 27.1936 21.9567 26.6887C21.8414 26.6395 21.8259 26.558 21.8259 26.4258V24.0112C21.8259 23.8467 21.9075 23.7975 22.0228 23.8805C23.0063 24.5129 24.1512 24.8488 25.3205 24.848C26.617 24.848 27.1584 24.3066 27.1584 23.5683C27.1584 22.9777 26.7816 22.4531 25.1236 21.5995C22.7934 20.4844 21.8259 19.3495 21.8259 17.4652C21.8259 15.3488 23.4825 13.5938 26.3541 13.5938C27.3536 13.5508 28.3517 13.7071 29.2903 14.0536C29.3444 14.0887 29.3881 14.1375 29.417 14.1951C29.4459 14.2527 29.459 14.3169 29.4548 14.3813V16.6313C29.4548 16.762 29.3733 16.845 29.2087 16.7958C28.3413 16.2964 27.3548 16.0413 26.3541 16.0575L26.3583 16.0547ZM12.248 18.0066C12.6248 18.0389 12.9202 18.0389 13.5769 18.0389C15.4964 18.0389 17.3006 17.3667 17.3006 14.7581C17.3006 12.6741 16.0041 11.625 13.823 11.625C13.1663 11.625 12.5433 11.6573 12.248 11.6742V18.0066ZM9.32719 9.28781C9.32719 9.1725 9.55641 9.09094 9.68859 9.09094C10.7391 9.04172 12.2972 9.00937 13.9214 9.00937C18.4664 9.00937 20.2383 11.5027 20.2383 14.6864C20.2383 18.8531 17.2191 20.6419 13.5122 20.6419C12.8892 20.6419 12.6755 20.6095 12.2325 20.6095V26.9095C12.2325 27.0403 12.1833 27.1064 12.0356 27.1064H9.52547C9.39469 27.1064 9.32859 27.0572 9.32859 26.9095V9.29484L9.32719 9.28781Z" fill="#31C5F0"/>
</g>
<defs>
<clipPath id="clip0_62_174">
<rect width="39" height="39" fill="white"/>
</clipPath>
</defs>
</svg>
