<svg width="108" height="93" viewBox="0 0 108 93" fill="none" xmlns="http://www.w3.org/2000/svg">
<g clip-path="url(#clip0_416_64)">
<path d="M55.0018 49.4504C59.7162 49.4504 63.5379 45.6286 63.5379 40.9142C63.5379 36.1998 59.7162 32.3781 55.0018 32.3781C50.2874 32.3781 46.4656 36.1998 46.4656 40.9142C46.4656 45.6286 50.2874 49.4504 55.0018 49.4504Z" fill="#00D8FF"/>
<path fill-rule="evenodd" clip-rule="evenodd" d="M55.629 22.9212C70.1832 23.0203 86.0622 24.0821 96.9622 33.8021C97.2824 34.088 97.5912 34.3854 97.8924 34.6923C100.464 37.3134 101.808 41.5453 99.732 45.028C95.4734 52.1783 85.9498 55.297 76.7292 57.2166C62.9394 60.0874 48.5205 60.1103 34.7365 57.5826C26.8046 56.1262 18.6935 53.5737 13.0567 48.2343C10.8626 46.1565 8.98683 43.4229 9.28039 40.3806C9.75696 35.4586 14.4787 32.3 18.4533 30.1612C29.4924 24.2213 42.9429 22.8926 55.629 22.9212ZM54.5729 25.1573C40.8021 25.2507 25.8972 26.1294 15.2641 34.9344C14.8924 35.2413 14.534 35.5635 14.189 35.9009C13.966 36.1182 13.7506 36.345 13.5428 36.5776C11.6766 38.6745 11.0341 42.0428 12.7955 44.561C14.5683 47.0944 17.26 48.9225 20.0316 50.4132C30.3978 55.987 42.6474 56.9764 54.59 57.0183C66.6814 57.0622 79.1502 55.9603 89.8309 50.4379C94.0856 48.2362 98.8741 45.0032 98.7045 40.84C98.5482 37.0198 94.8234 34.6599 92.0345 32.9748C91.2796 32.5192 90.5038 32.0979 89.7165 31.7014C79.114 26.3887 66.689 25.1306 54.5729 25.1573Z" fill="#00D8FF"/>
<path fill-rule="evenodd" clip-rule="evenodd" d="M74.2817 0.40264C79.6058 0.537984 82.3642 6.93917 82.7282 11.6667C82.8007 12.6065 82.8274 13.55 82.8159 14.4936C82.8045 15.5154 82.7492 16.5371 82.6596 17.5551C81.5368 30.1592 75.7819 42.1629 69.0052 53.2477C62.3771 64.0904 54.2946 74.9027 43.2994 79.9276C39.6641 81.5898 35.3408 82.6154 32.123 80.7606C27.712 78.2196 27.2297 72.2759 27.3116 67.7676C27.3326 66.6601 27.4051 65.5525 27.5194 64.4488C29.2141 48.1313 37.4853 32.6735 47.8362 19.3565C53.8752 11.5866 61.0599 3.87964 70.0097 1.08889C71.4185 0.648546 72.5374 0.381672 74.2817 0.40264ZM74.0262 2.63677C67.7756 2.73589 62.1636 7.36808 57.194 12.1814C44.1286 24.8331 34.5001 41.6596 30.6266 59.3058C30.3273 60.6725 30.0757 62.0489 29.8908 63.4347C29.7478 64.5079 29.643 65.5868 29.5877 66.6696C29.5439 67.5312 29.5286 68.3948 29.5553 69.2583C29.5744 69.9331 29.6182 70.6079 29.6926 71.2789C29.7478 71.7917 29.8222 72.3026 29.9156 72.8096C29.9861 73.1852 30.0681 73.5588 30.1634 73.9305C30.2416 74.2317 30.3292 74.531 30.4284 74.8283C31.208 77.1788 33.2172 79.4243 35.9146 79.4987C42.2071 79.6702 48.1317 75.0819 53.2538 70.0951C62.2456 61.3435 68.9461 50.3464 74.1806 38.7869C78.4049 29.4539 82.2688 19.3088 80.111 9.03605C80.029 8.64717 79.9337 8.26211 79.825 7.88086C79.7354 7.57014 79.6344 7.26323 79.5238 6.96014C78.6851 4.67455 76.7121 2.63105 74.0262 2.63677Z" fill="#00D8FF"/>
<path fill-rule="evenodd" clip-rule="evenodd" d="M36.1453 0.486498C42.9392 0.618029 49.0411 5.22925 54.4587 10.3933C64.3445 19.8159 71.6359 31.8024 77.1678 44.4179C81.4531 54.1913 85.3952 65.1617 81.8915 75.4746C80.7878 78.7247 77.9951 81.6985 74.2722 81.7747C67.4459 81.912 61.1191 76.9481 55.6291 71.6049C41.8564 58.1963 31.6313 40.4949 28.1276 21.7221C27.876 20.3801 27.6758 19.0267 27.5386 17.6675C27.4261 16.5581 27.3556 15.4429 27.3365 14.3278C27.3213 13.428 27.3403 12.5283 27.4032 11.6323C27.4452 11.0338 27.5062 10.439 27.5882 9.84618C27.6663 9.28956 27.7654 8.73484 27.8893 8.18584C27.9713 7.82175 28.0628 7.46147 28.1676 7.10309C29.1951 3.58987 31.8677 0.45981 36.1453 0.486498ZM35.888 2.72253C31.9096 2.81022 30.0891 7.5015 29.7231 10.7936C29.6488 11.4684 29.6031 12.1489 29.5821 12.8295C29.5554 13.6987 29.5668 14.5699 29.6107 15.4391C30.2359 28.0185 35.8594 40.1803 42.6456 51.3167C49.0354 61.801 56.7519 72.2435 67.3659 77.6115C70.4311 79.1612 74.1559 80.3793 76.8037 78.9153C80.1244 77.0777 80.5323 72.6991 80.7096 69.4356C80.7573 68.5472 80.763 67.6551 80.7344 66.7649C80.7001 65.6478 80.6124 64.5327 80.4809 63.4232C79.2571 53.059 74.6668 43.2513 69.3941 33.9831C62.8328 22.4541 54.7942 10.9632 43.4177 4.96047C41.0615 3.71759 38.511 2.70156 35.888 2.72253Z" fill="#00D8FF"/>
<path d="M8.89498 77.9631V89H3.60023V69.9091H8.6464V73.2773H8.87012C9.2927 72.167 10.0012 71.2887 10.9955 70.6424C11.9898 69.9878 13.1954 69.6605 14.6123 69.6605C15.9381 69.6605 17.094 69.9505 18.08 70.5305C19.066 71.1106 19.8325 71.9392 20.3794 73.0163C20.9262 74.0852 21.1997 75.3613 21.1997 76.8445V89H15.9049V77.7891C15.9132 76.6207 15.6149 75.7093 15.01 75.0547C14.4052 74.3918 13.5724 74.0604 12.5118 74.0604C11.7992 74.0604 11.1695 74.2137 10.6226 74.5202C10.084 74.8268 9.66143 75.2743 9.35485 75.8626C9.05655 76.4426 8.90326 77.1428 8.89498 77.9631ZM30.8166 89.3604C29.5985 89.3604 28.5131 89.1491 27.5602 88.7266C26.6073 88.2957 25.8533 87.6618 25.2981 86.8249C24.7512 85.9798 24.4778 84.9274 24.4778 83.668C24.4778 82.6074 24.6725 81.7166 25.062 80.9957C25.4514 80.2749 25.9817 79.6948 26.6529 79.2557C27.324 78.8165 28.0864 78.4851 28.9398 78.2614C29.8016 78.0376 30.7047 77.8802 31.6493 77.7891C32.7596 77.6731 33.6545 77.5653 34.334 77.4659C35.0134 77.3582 35.5065 77.2008 35.813 76.9936C36.1196 76.7865 36.2729 76.4799 36.2729 76.0739V75.9993C36.2729 75.2121 36.0243 74.6031 35.5272 74.1722C35.0383 73.7414 34.3423 73.5259 33.4391 73.5259C32.4862 73.5259 31.728 73.7372 31.1646 74.1598C30.6011 74.5741 30.2283 75.0961 30.046 75.7259L25.149 75.3281C25.3975 74.1681 25.8864 73.1655 26.6156 72.3203C27.3448 71.4669 28.2852 70.8123 29.437 70.3565C30.597 69.8925 31.9393 69.6605 33.464 69.6605C34.5246 69.6605 35.5396 69.7848 36.5091 70.0334C37.4868 70.282 38.3527 70.6673 39.1067 71.1893C39.869 71.7113 40.4698 72.3825 40.9089 73.2028C41.3481 74.0148 41.5676 74.9884 41.5676 76.1236V89H36.5463V86.3526H36.3972C36.0906 86.9492 35.6805 87.4754 35.1667 87.9311C34.653 88.3786 34.0357 88.7307 33.3148 88.9876C32.5939 89.2362 31.7612 89.3604 30.8166 89.3604ZM32.3329 85.7063C33.1118 85.7063 33.7995 85.553 34.3961 85.2464C34.9927 84.9316 35.4609 84.509 35.8006 83.9787C36.1403 83.4484 36.3102 82.8477 36.3102 82.1765V80.1506C36.1445 80.2583 35.9166 80.3577 35.6266 80.4489C35.3449 80.5317 35.0259 80.6104 34.6696 80.685C34.3133 80.7513 33.957 80.8134 33.6007 80.8714C33.2444 80.9212 32.9212 80.9667 32.6312 81.0082C32.0098 81.0993 31.467 81.2443 31.003 81.4432C30.539 81.642 30.1786 81.9113 29.9217 82.2511C29.6648 82.5825 29.5364 82.9968 29.5364 83.494C29.5364 84.2148 29.7974 84.7659 30.3194 85.147C30.8497 85.5199 31.5209 85.7063 32.3329 85.7063ZM55.8299 69.9091V73.8864H44.3331V69.9091H55.8299ZM46.9432 65.3352H52.2379V83.1335C52.2379 83.6224 52.3125 84.0036 52.4616 84.277C52.6108 84.5421 52.8179 84.7286 53.0831 84.8363C53.3565 84.944 53.6714 84.9979 54.0277 84.9979C54.2763 84.9979 54.5249 84.9772 54.7734 84.9357C55.022 84.886 55.2126 84.8487 55.3452 84.8239L56.1779 88.7638C55.9128 88.8467 55.5399 88.942 55.0593 89.0497C54.5787 89.1657 53.9946 89.2362 53.3068 89.261C52.0308 89.3107 50.9122 89.1409 49.951 88.7514C48.9981 88.362 48.2565 87.7571 47.7262 86.9368C47.1959 86.1165 46.9349 85.0807 46.9432 83.8295V65.3352ZM59.2789 89V69.9091H64.5737V89H59.2789ZM61.9387 67.4482C61.1516 67.4482 60.4763 67.1871 59.9128 66.6651C59.3577 66.1348 59.0801 65.5009 59.0801 64.7635C59.0801 64.0343 59.3577 63.4087 59.9128 62.8867C60.4763 62.3564 61.1516 62.0913 61.9387 62.0913C62.7259 62.0913 63.3971 62.3564 63.9522 62.8867C64.5157 63.4087 64.7974 64.0343 64.7974 64.7635C64.7974 65.5009 64.5157 66.1348 63.9522 66.6651C63.3971 67.1871 62.7259 67.4482 61.9387 67.4482ZM86.6134 69.9091L79.939 89H73.9731L67.2987 69.9091H72.8918L76.8566 83.5685H77.0555L81.0079 69.9091H86.6134ZM97.4079 89.3729C95.4442 89.3729 93.7538 88.9751 92.3369 88.1797C90.9283 87.3759 89.8428 86.2408 89.0805 84.7741C88.3182 83.2992 87.9371 81.555 87.9371 79.5415C87.9371 77.5778 88.3182 75.8543 89.0805 74.3711C89.8428 72.8879 90.9159 71.732 92.2996 70.9034C93.6917 70.0748 95.324 69.6605 97.1966 69.6605C98.4561 69.6605 99.6286 69.8635 100.714 70.2695C101.808 70.6673 102.761 71.268 103.573 72.0717C104.393 72.8755 105.031 73.8864 105.487 75.1044C105.943 76.3142 106.17 77.7311 106.17 79.3551V80.8093H90.05V77.5281H101.186C101.186 76.7657 101.021 76.0904 100.689 75.5021C100.358 74.9138 99.8979 74.454 99.3096 74.1225C98.7296 73.7828 98.0542 73.6129 97.2836 73.6129C96.4799 73.6129 95.7673 73.7994 95.1459 74.1722C94.5327 74.5368 94.0521 75.0298 93.7041 75.6513C93.3561 76.2644 93.1779 76.948 93.1697 77.7021V80.8217C93.1697 81.7663 93.3437 82.5825 93.6917 83.2702C94.048 83.958 94.5493 84.4883 95.1956 84.8612C95.8419 85.234 96.6083 85.4205 97.4949 85.4205C98.0832 85.4205 98.6218 85.3376 99.1107 85.1719C99.5996 85.0062 100.018 84.7576 100.366 84.4261C100.714 84.0947 100.979 83.6887 101.161 83.2081L106.059 83.5312C105.81 84.7079 105.3 85.7353 104.53 86.6136C103.767 87.4837 102.781 88.1631 101.572 88.652C100.37 89.1326 98.9823 89.3729 97.4079 89.3729Z" fill="#00D8FF"/>
</g>
<defs>
<clipPath id="clip0_416_64">
<rect width="108" height="93" fill="white"/>
</clipPath>
</defs>
</svg>
