<svg width="44" height="40" viewBox="0 0 44 40" fill="none" xmlns="http://www.w3.org/2000/svg">
<path d="M22.0009 24.0173C24.2422 24.0173 26.0591 22.2003 26.0591 19.9591C26.0591 17.7178 24.2422 15.9009 22.0009 15.9009C19.7596 15.9009 17.9427 17.7178 17.9427 19.9591C17.9427 22.2003 19.7596 24.0173 22.0009 24.0173Z" fill="#00D8FF"/>
<path fill-rule="evenodd" clip-rule="evenodd" d="M22.2991 11.405C29.2183 11.4521 36.7673 11.9569 41.9493 16.5779C42.1015 16.7138 42.2483 16.8552 42.3915 17.0011C43.6141 18.2472 44.253 20.2591 43.2661 21.9148C41.2415 25.3141 36.7139 26.7967 32.3303 27.7093C25.7745 29.0742 18.9197 29.085 12.3666 27.8833C8.59565 27.191 4.73956 25.9775 2.05978 23.4391C1.01668 22.4513 0.124933 21.1517 0.264496 19.7053C0.491058 17.3654 2.73584 15.8637 4.62537 14.8469C9.87346 12.0231 16.268 11.3914 22.2991 11.405ZM21.797 12.468C15.2502 12.5124 8.16428 12.9302 3.10921 17.1162C2.9325 17.2621 2.76212 17.4152 2.59809 17.5757C2.49206 17.679 2.38965 17.7868 2.29087 17.8974C1.40365 18.8942 1.09825 20.4956 1.93562 21.6927C2.77843 22.8972 4.05806 23.7662 5.37575 24.4749C10.3039 27.1248 16.1275 27.5952 21.8052 27.6151C27.5535 27.6359 33.4813 27.1121 38.559 24.4867C40.5817 23.44 42.8582 21.903 42.7776 19.9237C42.7033 18.1076 40.9325 16.9857 39.6066 16.1846C39.2477 15.968 38.8789 15.7677 38.5046 15.5792C33.4641 13.0535 27.5571 12.4553 21.797 12.468Z" fill="#00D8FF"/>
<path fill-rule="evenodd" clip-rule="evenodd" d="M31.1667 0.699522C33.6979 0.763866 35.0092 3.80705 35.1823 6.05455C35.2168 6.50133 35.2294 6.94993 35.224 7.39852C35.2186 7.88427 35.1923 8.37002 35.1497 8.85396C34.6159 14.8461 31.8799 20.5527 28.6582 25.8226C25.5072 30.9773 21.6647 36.1176 16.4374 38.5065C14.7092 39.2967 12.6538 39.7843 11.1241 38.9025C9.02703 37.6945 8.79775 34.8688 8.83672 32.7255C8.84669 32.199 8.88113 31.6724 8.9355 31.1477C9.74116 23.3902 13.6734 16.0414 18.5943 9.71036C21.4653 6.01649 24.881 2.35252 29.1358 1.02577C29.8055 0.816428 30.3375 0.689553 31.1667 0.699522ZM31.0453 1.76165C28.0737 1.80877 25.4057 4.01096 23.0431 6.29924C16.8317 12.314 12.2542 20.3135 10.4127 28.7026C10.2704 29.3524 10.1508 30.0067 10.0629 30.6656C9.99491 31.1758 9.94506 31.6887 9.91878 32.2035C9.89794 32.6131 9.89069 33.0236 9.90338 33.4342C9.91244 33.755 9.93328 34.0758 9.96863 34.3948C9.99491 34.6386 10.0303 34.8815 10.0747 35.1225C10.1082 35.3011 10.1472 35.4787 10.1925 35.6554C10.2296 35.7986 10.2713 35.9409 10.3184 36.0822C10.6891 37.1996 11.6443 38.2672 12.9266 38.3025C15.9182 38.3841 18.7348 36.2028 21.1699 33.832C25.4447 29.6714 28.6301 24.4433 31.1187 18.9478C33.1269 14.5108 34.9639 9.68771 33.938 4.80393C33.8991 4.61905 33.8538 4.43599 33.8021 4.25474C33.7595 4.10702 33.7115 3.96112 33.6589 3.81702C33.2602 2.73043 32.3222 1.75893 31.0453 1.76165Z" fill="#00D8FF"/>
<path fill-rule="evenodd" clip-rule="evenodd" d="M13.0363 0.739338C16.2662 0.80187 19.1671 2.99409 21.7426 5.44912C26.4424 9.92871 29.9088 15.6272 32.5388 21.6248C34.576 26.2711 36.4502 31.4866 34.7845 36.3894C34.2597 37.9346 32.9321 39.3483 31.1622 39.3846C27.9169 39.4498 24.9091 37.0899 22.2991 34.5497C15.7514 28.1752 10.8903 19.7597 9.22459 10.835C9.10497 10.197 9.00981 9.55353 8.94456 8.90737C8.89109 8.37993 8.85756 7.84977 8.8485 7.31962C8.84125 6.89187 8.85031 6.46412 8.88022 6.03818C8.90016 5.75362 8.92916 5.47087 8.96812 5.18903C9.00528 4.9244 9.0524 4.66068 9.11131 4.39968C9.15028 4.22659 9.19378 4.05531 9.24362 3.88493C9.73209 2.21471 11.0027 0.726651 13.0363 0.739338ZM12.9139 1.80237C11.0226 1.84406 10.1571 4.07434 9.98312 5.63943C9.94778 5.96024 9.92603 6.28378 9.91606 6.60731C9.90337 7.02056 9.90881 7.43471 9.92965 7.84796C10.2269 13.8283 12.9003 19.6102 16.1266 24.9045C19.1643 29.8889 22.8328 34.8533 27.8788 37.4053C29.3361 38.1421 31.1069 38.7212 32.3657 38.0252C33.9444 37.1516 34.1383 35.0699 34.2226 33.5184C34.2453 33.0961 34.248 32.672 34.2344 32.2487C34.2181 31.7177 34.1764 31.1875 34.1138 30.6601C33.532 25.7328 31.3498 21.0702 28.8431 16.664C25.7238 11.183 21.9021 5.72009 16.4936 2.86631C15.3735 2.27543 14.1609 1.7924 12.9139 1.80237Z" fill="#00D8FF"/>
</svg>
