<svg width="122" height="122" viewBox="0 0 122 122" fill="none" xmlns="http://www.w3.org/2000/svg">
<g clip-path="url(#clip0_46_4)">
<path d="M106.108 2L105.177 6.49056C103.739 15.0006 104.26 17.4353 108.204 20.5937L112.012 23.5107L108.067 39.7957C105.711 49.5117 102.821 57.6543 100.985 60.3301C99.4098 62.6385 97.5742 66.0379 97.1772 67.8639C96.5199 70.0461 94.2873 72.2395 90.8761 74.1805C87.8621 75.7654 81.9458 80.0147 77.7535 83.4257C74.4046 86.2164 72.0976 87.9275 70.845 88.6626L66.7519 91.6601C65.437 93.6124 64.6928 95.186 64.4076 96.3803C64.1225 97.609 64.2835 98.4246 64.7053 99.0216C65.1146 99.5958 65.8216 99.9979 66.7891 100.25C67.6001 100.434 68.5315 100.539 69.4891 100.539C69.7697 100.539 70.0481 100.53 70.324 100.513L70.2868 100.514C73.1598 100.328 75.832 99.8708 78.389 99.1659L78.1256 99.2284C78.994 99.0101 79.6759 98.8033 80.2713 98.6198C81.1891 97.5746 83.31 95.5994 87.0682 92.1653C97.0405 83.058 100.848 78.0738 96.9164 79.4175C95.4652 79.8998 96.1225 78.6824 98.6156 76.2477C103.875 71.5047 106.889 64.3383 113.189 41.8629C118.176 24.1193 118.176 23.8665 121.847 23.8665C123.571 23.8665 128.445 24.1422 128.445 24.1422V2H117.258H106.108ZM153.724 38.3487C152.93 38.3487 151.616 39.4512 150.834 40.6686C149.396 42.8508 151.095 44.1829 172.751 56.7012C185.613 64.2465 195.982 70.6778 195.722 71.1717C195.462 71.5278 184.956 77.8558 172.367 85.1484C149.52 98.2636 149.396 98.3902 151.492 101.066C154.121 104.224 151.492 105.315 181.148 88.1803L202.68 75.4208V65.8198L178.655 52.0844C165.669 44.5506 154.382 38.4752 153.724 38.3489L153.724 38.3487ZM-45.7837 39.6924C-46.441 39.6924 -57.7281 45.894 -70.7144 53.3016L-95 67.037V76.638L-70.8507 90.6146C-57.4551 98.2634 -46.168 104.591 -45.647 104.591C-45.1261 104.591 -44.0717 103.489 -43.0176 102.157C-41.4423 99.8482 -42.7697 98.872 -64.9468 85.8716C-86.0696 73.5945 -88.3022 71.895 -86.1937 70.5626C-84.8789 69.7128 -74.9066 63.9935 -64.1407 57.8032C-39.5946 43.8265 -40.9092 44.7912 -42.8813 41.874C-43.6627 40.6681 -44.9898 39.5771 -45.7837 39.6918V39.6924ZM61.9271 39.9564C58.3052 39.9335 50.5161 45.044 27.1976 62.673C26.193 64.8896 26.106 66.4169 26.5651 67.4047C26.8627 68.0822 27.4084 68.5533 28.1651 68.8978C28.9093 69.2423 29.8768 69.449 30.9433 69.5295C33.0643 69.7018 35.5699 69.3917 37.5914 69.0243L38.9557 68.7371C39.422 68.1621 40.0214 67.7029 40.7133 67.3934L40.7418 67.3818C42.1805 66.6467 48.221 61.5476 54.2615 56.081C64.8911 46.1123 67.3841 41.6105 63.0556 40.1518C62.7297 40.0283 62.3512 39.9564 61.955 39.9564C61.9451 39.9564 61.9352 39.9564 61.9256 39.9564H61.9271ZM89.1648 46.8816C85.9772 46.9621 80.2344 50.3843 70.3985 57.654C65.462 61.3635 62.3364 63.3618 60.6619 63.7752L54.1627 68.5298C51.7193 72.6643 51.3594 75.2254 52.0045 76.638C52.3368 77.343 52.9429 77.8891 53.6952 78.1701L53.7162 78.1771C54.5854 78.5042 55.5938 78.6939 56.6499 78.6939C56.6651 78.6939 56.6802 78.6939 56.6953 78.6939H56.693C59.266 78.6678 61.7381 78.3131 64.0783 77.673L63.887 77.7179C65.4132 77.34 66.6152 76.9788 67.7932 76.5713L67.4964 76.6612L67.856 76.5234L68.5132 76.2017C69.7537 74.7202 72.6063 71.9294 76.1785 68.7137C87.4656 58.6303 93.2332 51.4639 92.0547 48.7879C91.5212 47.4902 90.6035 46.8358 89.1648 46.8816ZM59.0991 59.2849C58.1814 59.3767 56.1223 60.8469 52.4138 63.8557C47.0556 68.2429 41.2136 70.7693 39.1918 69.6439C39.0496 69.6856 38.5723 69.7815 38.0926 69.8706L37.7778 69.9195C35.7187 70.2985 33.1512 70.6086 30.8567 70.4364C29.7099 70.3704 28.6453 70.1104 27.677 69.6918L27.7311 69.7128C26.7994 69.3118 26.07 68.6289 25.6581 67.7848L25.6473 67.7603C25.1883 66.7267 25.1883 65.4403 25.7092 63.7981L17.6472 69.9308L-0.598236 83.9075V106.566L59.1857 62.9596C59.1849 62.9281 59.1846 62.891 59.1846 62.8538C59.1846 62.3882 59.2575 61.9387 59.3936 61.5139L59.3846 61.5473C59.8436 60.0085 59.8183 59.2273 59.0991 59.2849ZM84.8234 66.6236C83.9179 66.6236 82.4048 67.8066 79.9861 70.1839C76.6991 73.4341 71.527 76.5807 68.7859 77.224L68.3641 77.4307C68.0975 77.5427 67.6461 77.7058 67.1894 77.8579L66.9998 77.9131C66.2556 78.1427 65.2882 78.4183 64.1719 78.6939C61.9393 79.2568 59.161 79.7736 56.6802 79.716C55.4502 79.7144 54.2781 79.4866 53.2092 79.0754L53.2693 79.0958C52.2435 78.6972 51.4388 77.9672 50.9981 77.0536L50.9873 77.0286C50.2678 75.4321 50.5533 73.1927 52.1283 70.0116L-0.610733 108.474V122.312H22.5586L71.7005 86.5723C72.9781 85.263 74.9006 83.4714 77.4928 81.2319C84.4385 75.2715 86.0139 73.2158 86.0139 70.1723C86.0139 67.8066 85.729 66.612 84.8234 66.6236ZM96.5199 89.0185L92.3151 92.9002C89.9584 94.9674 85.7537 97.517 82.8763 98.6079L82.3056 98.8375L82.2684 98.8949L82.1443 99.0098C82.0327 99.0903 81.983 99.1016 81.8963 99.136C81.0472 99.4528 79.8841 99.817 78.6992 100.135L78.3986 100.204C76.0381 100.867 73.2892 101.337 70.4548 101.519L70.3365 101.525C70.0909 101.541 69.8042 101.549 69.5153 101.549C68.442 101.549 67.3996 101.427 66.4033 101.197L66.4917 101.215C65.3707 100.981 64.4297 100.387 63.7969 99.5731L63.7876 99.5608C63.1922 98.711 63.0187 97.574 63.3535 96.1727C63.6492 95.0812 64.053 94.1254 64.5678 93.2331L64.5318 93.3015L24.8784 122.312H77.6175L83.9185 115.628C92.5759 106.279 96.5202 99.5949 96.5202 93.8756L96.5199 89.0185Z" fill="#DB7093"/>
</g>
<defs>
<clipPath id="clip0_46_4">
<rect width="122" height="122" fill="white"/>
</clipPath>
</defs>
</svg>
