<svg width="69" height="92" viewBox="0 0 69 92" fill="none" xmlns="http://www.w3.org/2000/svg">
<path fill-rule="evenodd" clip-rule="evenodd" d="M34 46C34 37.5778 40.8278 30.75 49.25 30.75C57.6722 30.75 64.5 37.5778 64.5 46C64.5 54.4222 57.6722 61.25 49.25 61.25C40.8278 61.25 34 54.4222 34 46Z" fill="#1ABCFE"/>
<path fill-rule="evenodd" clip-rule="evenodd" d="M3.5 76.5C3.5 68.0778 10.3277 61.25 18.75 61.25H34V76.5C34 84.9222 27.1722 91.75 18.75 91.75C10.3277 91.75 3.5 84.9222 3.5 76.5Z" fill="#0ACF83"/>
<path fill-rule="evenodd" clip-rule="evenodd" d="M34 0.25V30.75H49.25C57.6722 30.75 64.5 23.9222 64.5 15.5C64.5 7.07765 57.6722 0.25 49.25 0.25H34Z" fill="#FF7262"/>
<path fill-rule="evenodd" clip-rule="evenodd" d="M3.5 15.5C3.5 23.9222 10.3277 30.75 18.75 30.75H34V0.25H18.75C10.3277 0.25 3.5 7.07765 3.5 15.5Z" fill="#F24E1E"/>
<path fill-rule="evenodd" clip-rule="evenodd" d="M3.5 46C3.5 54.4222 10.3277 61.25 18.75 61.25H34V30.75H18.75C10.3277 30.75 3.5 37.5778 3.5 46Z" fill="#A259FF"/>
</svg>
