<svg width="38" height="38" viewBox="0 0 38 38" fill="none" xmlns="http://www.w3.org/2000/svg">
<g clip-path="url(#clip0_60_134)">
<path d="M32.3 0H5.7C2.55198 0 0 2.55198 0 5.7V32.3C0 35.448 2.55198 38 5.7 38H32.3C35.448 38 38 35.448 38 32.3V5.7C38 2.55198 35.448 0 32.3 0Z" fill="#F7DF1E"/>
<path d="M24.0469 27.4609C24.7891 28.7227 25.8281 29.6133 27.5352 29.6133C29.0195 29.6133 29.9844 28.8711 29.9844 27.832C29.9844 26.6445 29.0195 26.1992 27.3867 25.457L26.4961 25.0859C23.8984 23.9727 22.1914 22.6367 22.1914 19.7422C22.1914 17.0703 24.1953 14.9922 27.3867 14.9922C29.6875 14.9922 31.3203 15.8086 32.4336 17.8867L29.6875 19.668C29.0938 18.5547 28.4258 18.1094 27.3867 18.1094C26.3477 18.1094 25.6797 18.7773 25.6797 19.668C25.6797 20.707 26.3477 21.1523 27.9062 21.8203L28.7969 22.1914C31.8398 23.5273 33.5469 24.7891 33.5469 27.832C33.5469 31.0234 31.0234 32.8047 27.6094 32.8047C24.2695 32.8047 22.1172 31.2461 21.0781 29.168L24.0469 27.4609ZM11.4297 27.7578C12.0234 28.7227 12.4688 29.6133 13.7305 29.6133C14.918 29.6133 15.6602 29.168 15.6602 27.3867V15.0664H19.2227V27.2383C19.2227 30.9492 17.0703 32.582 13.8789 32.582C10.9844 32.582 9.35156 31.0977 8.53516 29.3164L11.4297 27.7578Z" fill="black"/>
</g>
<defs>
<clipPath id="clip0_60_134">
<rect width="38" height="38" fill="white"/>
</clipPath>
</defs>
</svg>
