<svg width="99" height="110" viewBox="0 0 99 110" fill="none" xmlns="http://www.w3.org/2000/svg">
<g clip-path="url(#clip0_41_83)">
<path d="M93.2768 54.1841C93.2768 51.5491 92.23 49.022 90.3668 47.1587C88.5036 45.2955 85.9765 44.2487 83.3414 44.2487C82.9925 44.2484 82.6439 44.2662 82.2968 44.3021L95.9456 4.04974H37.946L51.5757 44.2678C51.3774 44.2678 51.1754 44.2487 50.9733 44.2487C48.6007 44.246 46.3055 45.0924 44.5028 46.6349C42.7 48.1773 41.5087 50.314 41.1444 52.6584C40.7801 55.0029 41.2667 57.4003 42.5164 59.4171C43.766 61.4339 45.6961 62.9369 47.9576 63.6544C45.8442 67.2933 43.2127 70.6054 40.1458 73.4868C36.1536 77.3032 31.4107 80.2466 26.2188 82.1297C23.3098 80.7512 21.0348 78.3169 19.8558 75.3216C18.6768 72.3262 18.6822 68.9944 19.8709 66.0029C20.1645 65.3166 20.4619 64.6227 20.744 63.9289C22.9593 63.4072 24.9284 62.141 26.3223 60.342C27.7163 58.543 28.4506 56.3201 28.4026 54.0447C28.3546 51.7693 27.5271 49.5794 26.0586 47.8407C24.59 46.1021 22.5692 44.9202 20.3339 44.4923C18.0986 44.0645 15.7842 44.4168 13.7774 45.4903C11.7707 46.5638 10.1931 48.2935 9.30827 50.3903C8.42348 52.4871 8.2851 54.8241 8.91624 57.0107C9.54738 59.1973 10.9098 61.101 12.7759 62.4039C9.60449 68.1542 7.18412 74.2878 5.57406 80.6543C4.22444 88.794 5.57406 97.4293 12.6081 102.313C29.0019 113.678 46.8024 95.2676 65.5676 90.6431C72.3691 88.9656 79.8339 89.2362 85.8234 85.7669C87.9873 84.5344 89.8533 82.8408 91.289 80.8061C92.7248 78.7714 93.695 76.4457 94.1308 73.9939C94.5293 71.6576 94.4543 69.2651 93.91 66.9584C93.3657 64.6517 92.3634 62.478 90.9626 60.5662C92.4573 58.78 93.2752 56.5246 93.273 54.1956L93.2768 54.1841ZM60.9125 54.2375V54.2032C60.9153 52.4934 60.4759 50.812 59.6368 49.3222C58.7977 47.8325 57.5876 46.5851 56.124 45.7013L66.9667 23.7375L77.8324 45.9034C76.4692 46.8092 75.3516 48.0384 74.5793 49.4814C73.8069 50.9243 73.4038 52.536 73.4061 54.1727C73.4061 54.2451 73.4061 54.3176 73.4061 54.39L60.9125 54.2375Z" fill="#C63D14"/>
<path d="M95.7054 54.1841C95.7015 51.3033 94.6931 48.5141 92.8538 46.2969C91.0145 44.0797 88.4595 42.5734 85.6289 42.0375L99.3311 1.625H34.5643L48.2893 42.1176C45.8932 42.6531 43.711 43.8904 42.0211 45.6715C40.3312 47.4525 39.2102 49.6967 38.8011 52.1176C38.392 54.5385 38.7134 57.0264 39.7243 59.2638C40.7352 61.5013 42.3897 63.3868 44.4768 64.6799C42.7527 67.2414 40.7475 69.602 38.4988 71.7178C35.0179 75.0482 30.9274 77.676 26.4513 79.4572C24.3507 78.2378 22.7584 76.304 21.9648 74.0085C21.1711 71.7129 21.229 69.2086 22.1279 66.9522L22.2804 66.5976L22.5626 65.9304C25.1035 65.0495 27.2882 63.3645 28.7858 61.1307C30.2835 58.897 31.0124 56.236 30.8623 53.5508C30.7121 50.8657 29.6911 48.3026 27.9538 46.2496C26.2166 44.1967 23.8576 42.7658 21.2343 42.1736C18.6109 41.5814 15.8661 41.8601 13.4153 42.9676C10.9646 44.0751 8.94148 45.951 7.65236 48.3112C6.36324 50.6715 5.87832 53.3875 6.27104 56.0481C6.66376 58.7086 7.91273 61.1687 9.82881 63.0558C9.41706 63.9365 8.98244 64.8286 8.53637 65.7474C6.06447 70.2924 4.26649 75.1726 3.19887 80.2349C1.42606 90.9099 4.28543 99.4614 11.2471 104.284C14.9842 106.957 19.4665 108.388 24.0609 108.375C32.1891 108.375 40.4127 104.292 48.4609 100.296C54.0841 97.2382 60.0167 94.7869 66.1585 92.9839C68.3583 92.4426 70.6229 92.1147 73.021 91.7678C77.9065 91.3774 82.6705 90.0466 87.051 87.8485C89.5213 86.4374 91.6512 84.5004 93.2897 82.1747C94.9282 79.849 96.0354 77.1915 96.5327 74.3904C97.3427 69.6314 96.4072 64.74 93.8982 60.6158C95.0851 58.6792 95.7119 56.4516 95.7092 54.1803L95.7054 54.1841ZM90.8521 54.1841C90.8521 55.6696 90.4116 57.1217 89.5863 58.3568C88.761 59.5919 87.588 60.5546 86.2156 61.123C84.8432 61.6915 83.3331 61.8402 81.8762 61.5504C80.4193 61.2606 79.081 60.5453 78.0306 59.4949C76.9802 58.4446 76.2649 57.1063 75.9751 55.6494C75.6853 54.1925 75.8341 52.6823 76.4025 51.3099C76.971 49.9375 77.9336 48.7645 79.1688 47.9393C80.4039 47.114 81.856 46.6735 83.3414 46.6735C85.3328 46.6755 87.2419 47.4675 88.65 48.8755C90.0581 50.2836 90.85 52.1928 90.8521 54.1841ZM92.5562 6.47831L80.4554 42.1633C79.9372 42.2887 79.4277 42.4479 78.9304 42.6399L66.9782 18.2399L54.9879 42.495C54.4658 42.3141 53.9321 42.1689 53.3904 42.0604L41.3315 6.47831H92.5562ZM50.9733 46.6735C52.4588 46.6735 53.9109 47.114 55.146 47.9393C56.3811 48.7645 57.3438 49.9375 57.9122 51.3099C58.4807 52.6823 58.6294 54.1925 58.3396 55.6494C58.0498 57.1063 57.3345 58.4446 56.2841 59.4949C55.2337 60.5453 53.8955 61.2606 52.4386 61.5504C50.9816 61.8402 49.4715 61.6915 48.0991 61.123C46.7267 60.5546 45.5537 59.5919 44.7285 58.3568C43.9032 57.1217 43.4627 55.6696 43.4627 54.1841C43.4647 52.1928 44.2566 50.2836 45.6647 48.8755C47.0728 47.4675 48.982 46.6755 50.9733 46.6735ZM18.4832 46.7459C19.9693 46.7467 21.4218 47.1883 22.6568 48.0149C23.8918 48.8415 24.8539 50.0159 25.4212 51.3894C25.9885 52.763 26.1356 54.274 25.8438 55.7312C25.552 57.1884 24.8345 58.5262 23.7821 59.5755C22.7296 60.6247 21.3896 61.3381 19.9315 61.6255C18.4734 61.9128 16.9629 61.7611 15.5911 61.1896C14.2192 60.6181 13.0478 59.6525 12.225 58.415C11.4022 57.1774 10.965 55.7236 10.9687 54.2375C10.9708 52.2462 11.7627 50.337 13.1708 48.9289C14.5789 47.5208 16.488 46.7289 18.4794 46.7269L18.4832 46.7459ZM91.748 73.5631C91.3711 75.6646 90.5368 77.6576 89.3042 79.4009C88.0715 81.1442 86.4706 82.5951 84.6148 83.6509C80.7645 85.5204 76.5953 86.6445 72.3271 86.964C69.9176 87.3109 67.4281 87.6693 64.9919 88.2717C58.5066 90.1496 52.2431 92.7227 46.3106 95.9463C34.2479 101.936 23.8169 107.109 14.0111 100.304C6.81693 95.3172 7.14862 86.0909 7.98737 81.0356C8.97442 76.435 10.6206 72.0011 12.875 67.871C13.2257 67.1504 13.5689 66.4413 13.9044 65.7398C14.9285 66.1492 16.0031 66.4185 17.0992 66.5404C16.1289 69.9678 16.4 73.6277 17.8648 76.8746C19.3296 80.1215 21.8939 82.7469 25.1055 84.2876L26.0396 84.768L27.027 84.4173C32.5349 82.4292 37.5668 79.3127 41.8004 75.2673C44.5969 72.6366 47.0535 69.6665 49.1128 66.4261C51.7477 66.8268 54.4416 66.3649 56.7925 65.1092C59.1433 63.8535 61.0252 61.8714 62.1572 59.4585C63.2892 57.0457 63.6108 54.3314 63.0738 51.7209C62.5369 49.1103 61.1702 46.7433 59.1778 44.9731L66.9477 29.2618L74.7976 45.2743C72.5641 47.4268 71.2222 50.3408 71.0386 53.4373C70.8549 56.5337 71.843 59.5859 73.8064 61.9874C75.7698 64.3888 78.5648 65.9636 81.636 66.3989C84.7072 66.8342 87.8297 66.0981 90.3831 64.3368C91.7989 67.1944 92.2727 70.427 91.7366 73.5707L91.748 73.5631Z" fill="white"/>
</g>
<defs>
<clipPath id="clip0_41_83">
<rect width="99" height="110" fill="white"/>
</clipPath>
</defs>
</svg>
