<svg width="52" height="39" viewBox="0 0 52 39" fill="none" xmlns="http://www.w3.org/2000/svg">
<path d="M44.3244 22.8492C42.7306 22.8513 41.1582 23.2157 39.7261 23.9149C39.2777 23.1708 38.9314 22.3698 38.6966 21.5333C38.5616 20.8777 38.5304 20.2049 38.6041 19.5396C38.759 18.8075 38.96 18.0859 39.2059 17.3791C39.1968 17.2866 39.0953 16.8498 38.0749 16.8353C37.0544 16.8208 36.1754 17.0293 36.0811 17.2993C35.9039 17.7926 35.7616 18.2977 35.6552 18.8109C34.8106 20.8944 33.7711 22.8934 32.5504 24.7813C31.8665 23.6601 31.5851 22.3393 31.7529 21.0367C31.9078 20.3046 32.1088 19.583 32.3546 18.8762C32.3456 18.7838 32.2441 18.3469 31.2236 18.3324C30.2032 18.3179 29.3241 18.5264 29.2299 18.7964C29.1356 19.0665 29.016 19.7027 28.8039 20.3081C28.5919 20.9134 26.116 26.4452 25.4671 27.8716C25.1336 28.5966 24.8454 29.1875 24.6424 29.5863C24.6328 29.6122 24.6207 29.637 24.6062 29.6606C24.4249 30.0031 24.3289 30.1898 24.3289 30.1898V30.1989C24.1893 30.449 24.0407 30.681 23.9664 30.681C23.8368 30.1632 23.843 29.6207 23.9845 29.1059C24.347 27.1865 25.2351 24.2031 25.2261 24.0998C25.2261 24.0436 25.3928 23.5253 24.6515 23.257C24.4796 23.1752 24.2865 23.1487 24.0989 23.1811C23.9113 23.2136 23.7383 23.3034 23.6039 23.4383C23.5386 23.4383 23.4933 23.5959 23.4933 23.5959C23.4933 23.5959 24.2999 20.241 21.9545 20.241C21.0412 20.4247 20.1738 20.7892 19.4034 21.3131C18.633 21.837 17.9752 22.5096 17.4686 23.2914C16.8378 23.634 15.4947 24.3663 14.0574 25.1547C13.5137 25.461 12.9446 25.7673 12.4171 26.0609C12.3809 26.0247 12.3428 25.9776 12.3066 25.9413C9.45187 22.8999 4.20469 20.7539 4.43125 16.6849C4.51462 15.2023 5.02394 11.309 14.5069 6.58019C22.3116 2.73407 28.523 3.79982 29.5978 6.16332C31.1366 9.53819 26.2701 15.804 18.2062 16.7121C17.3141 16.8931 16.3928 16.8712 15.5103 16.6482C14.6277 16.4251 13.8066 16.0065 13.1077 15.4234C12.6817 14.9594 12.6165 14.9322 12.4588 15.0246C12.1996 15.1642 12.3664 15.5811 12.4588 15.8221C12.7664 16.3788 13.1825 16.8682 13.6825 17.2614C14.1824 17.6546 14.7561 17.9436 15.3697 18.1113C18.542 18.7968 21.8495 18.4691 24.8255 17.1743C29.7192 15.2838 33.5255 10.0276 32.409 5.625C31.2871 1.15719 23.8721 -0.316371 16.8541 2.18125C12.4584 3.66039 8.39669 5.99023 4.90069 9.03794C1.03462 12.6539 0.423811 15.7949 0.673936 17.1126C1.58019 21.7853 8.01637 24.8248 10.5919 27.0814C10.4614 27.1557 10.3418 27.2209 10.2403 27.2753C8.95162 27.9151 4.03975 30.4834 2.80906 33.1986C1.41887 36.2798 3.032 38.482 4.09775 38.7793C5.70364 39.1637 7.38948 39.037 8.91992 38.4171C10.4504 37.7971 11.749 36.7147 12.6346 35.321C13.3887 34.165 13.8523 32.8439 13.9858 31.4701C14.1193 30.0964 13.9187 28.7107 13.4013 27.4312C13.3926 27.4105 13.3803 27.3915 13.3651 27.375L14.3746 26.7823C15.0326 26.3926 15.6814 26.0319 16.2379 25.7347C15.8605 26.823 15.639 27.9592 15.5799 29.1096C15.4518 30.8727 15.9914 32.6196 17.0916 34.0033C17.259 34.1474 17.4533 34.2569 17.6633 34.3253C17.8733 34.3938 18.0948 34.4198 18.315 34.4021C19.4025 34.4021 19.9009 33.4958 20.4465 32.4192C21.1135 31.1033 21.7152 29.5736 21.7152 29.5736C21.7152 29.5736 20.9649 33.7079 23.0039 33.7079C23.7452 33.7079 24.4956 32.7436 24.8309 32.2579V32.2669C24.8309 32.2669 24.8491 32.2398 24.8871 32.1745L25.0067 31.9806V31.9624C25.304 31.4441 25.971 30.2659 26.9624 28.3103C28.2421 25.7891 29.4746 22.6371 29.4746 22.6371C29.5934 23.3298 29.7575 24.014 29.9657 24.6853C30.2643 25.4989 30.6173 26.2916 31.0224 27.0578C30.7252 27.4747 30.5403 27.7067 30.5403 27.7067L30.5494 27.7158C30.3083 28.0311 30.0491 28.3737 29.7609 28.7072C28.9035 29.6499 28.108 30.647 27.3793 31.6924C27.271 31.868 27.2338 32.0782 27.2753 32.2803C27.3167 32.4824 27.4336 32.6611 27.6022 32.7799C27.9838 32.9784 28.4187 33.0502 28.8438 32.9847C29.4844 32.9485 30.1144 32.8045 30.7071 32.5588C31.2798 32.3572 31.8202 32.0733 32.3111 31.7159C32.8172 31.3653 33.2246 30.8904 33.4941 30.3368C33.7636 29.7832 33.8861 29.1696 33.8499 28.5549C33.7929 27.7807 33.5952 27.0234 33.2663 26.3201C33.3587 26.1896 33.4476 26.0609 33.5346 25.9304C34.565 24.3923 35.4938 22.7885 36.3149 21.1291C36.4338 21.8218 36.5979 22.506 36.8061 23.1773C37.0523 23.8804 37.3554 24.5624 37.7124 25.2163C36.5269 26.1284 35.5931 27.3272 34.9991 28.6999C34.4154 30.3874 34.8686 31.1468 35.7241 31.3226C36.1922 31.3549 36.6603 31.259 37.078 31.0453C37.6922 30.8435 38.2708 30.5462 38.7926 30.1644C39.3428 29.8397 39.8036 29.3833 40.1336 28.8363C40.4636 28.2893 40.6524 27.6688 40.6831 27.0306C40.6419 26.3937 40.4981 25.7675 40.2571 25.1764C41.8215 24.5653 43.5177 24.3704 45.1799 24.6109C49.5915 25.1293 50.4633 27.8825 50.2966 29.0425C50.2184 29.4537 50.053 29.8435 49.8117 30.1855C49.5703 30.5275 49.2585 30.8139 48.8973 31.0254C48.591 31.2193 48.4895 31.2846 48.5167 31.4241C48.5529 31.6289 48.6979 31.6181 48.9607 31.5818C49.6256 31.3752 50.2123 30.9718 50.6433 30.425C51.0743 29.8781 51.3294 29.2135 51.375 28.5187C51.5146 25.7999 48.9191 22.8184 44.3298 22.8456L44.3244 22.8492ZM10.2856 34.3187C8.82112 35.9137 6.78206 36.5154 5.90119 36.0061C4.95506 35.4624 5.32662 33.1061 7.12462 31.4169C8.19119 30.4568 9.34398 29.597 10.5684 28.8486C10.7822 28.7181 11.0976 28.5332 11.4746 28.3048L11.5761 28.2486L11.7991 28.1091C12.1203 29.1853 12.1494 30.3277 11.8834 31.4189C11.6175 32.5101 11.066 33.5109 10.2856 34.3187ZM20.9449 27.0687C20.4356 28.3103 19.3699 31.4912 18.721 31.3136C18.1646 31.1649 17.8147 28.7543 18.6104 26.3727C19.0122 25.2262 19.5974 24.1525 20.3432 23.1936C21.1407 22.3036 22.0216 22.0064 22.2336 22.3689C22.0402 23.9908 21.6058 25.5749 20.9449 27.0687ZM29.741 31.2773C29.5271 31.3879 29.3241 31.4586 29.2317 31.4078C29.1664 31.3716 29.3241 31.2266 29.3241 31.2266C29.3241 31.2266 30.4279 30.0394 30.8629 29.5029C31.1131 29.1875 31.4067 28.8178 31.7257 28.3991V28.5187C31.7257 29.9361 30.3536 30.8913 29.7428 31.2809L29.741 31.2773ZM36.527 29.7294C36.3693 29.6189 36.3965 29.2473 36.9257 28.0891C37.2937 27.3453 37.8078 26.6832 38.4374 26.1425C38.5339 26.4169 38.5841 26.7054 38.586 26.9962C38.5931 27.6152 38.3952 28.2192 38.0231 28.714C37.6509 29.2087 37.1255 29.5664 36.5288 29.7313L36.527 29.7294Z" fill="#CD6799"/>
</svg>
