<svg width="46" height="31" viewBox="0 0 46 31" fill="none" xmlns="http://www.w3.org/2000/svg">
<path d="M38.1864 0.940454C39.7294 1.2994 41.1314 2.10732 42.2156 3.26227C42.8129 3.88733 43.3315 4.58305 43.7599 5.33395C43.7798 5.41552 40.9795 7.29689 39.2812 8.34633C39.2196 8.38802 38.9749 8.12158 38.6976 7.71195C38.3873 7.17866 37.947 6.73271 37.4176 6.41575C36.8883 6.09878 36.2873 5.92116 35.6707 5.89945C33.7186 5.76533 32.4607 6.78758 32.4698 8.49677C32.4529 8.91667 32.5487 9.33345 32.7471 9.70389C33.1767 10.592 33.9742 11.1249 36.4791 12.2106C41.0901 14.1953 43.0693 15.5039 44.2909 17.3635C44.9815 18.5385 45.4067 19.8502 45.537 21.2069C45.6672 22.5635 45.4993 23.9322 45.0449 25.2171C44.4205 26.6262 43.4303 27.8425 42.1771 28.7396C40.9239 29.6368 39.4533 30.1823 37.9182 30.3193C36.2864 30.5064 34.6375 30.4894 33.0099 30.2685C30.5168 29.8589 28.2202 28.6623 26.4559 26.8538C25.7893 26.1031 25.225 25.2676 24.7776 24.3688C24.9657 24.2289 25.1638 24.1029 25.3702 23.9918C25.6566 23.8287 26.7405 23.2052 27.7627 22.6125L29.6187 21.525L30.0066 22.0905C30.6599 23.0248 31.4915 23.8206 32.4535 24.4323C33.4251 24.9652 34.5256 25.2177 35.6323 25.1617C36.7389 25.1057 37.8083 24.7433 38.7211 24.1151C39.192 23.6561 39.4863 23.0462 39.5526 22.392C39.6189 21.7379 39.4529 21.0812 39.0836 20.5372C38.5834 19.8213 37.5611 19.2195 34.6557 17.9598C32.3775 17.1916 30.3024 15.9183 28.5856 14.2351C27.768 13.3035 27.1643 12.2041 26.8166 11.0143C26.5596 9.65891 26.5216 8.27102 26.7042 6.90358C27.0453 5.33004 27.8619 3.89939 29.0433 2.80551C30.2247 1.71162 31.7139 1.00737 33.309 0.788205C34.9332 0.594115 36.5774 0.645439 38.1864 0.940454ZM23.0647 3.62839L23.0847 6.26377H14.6928V30.0945H8.775V6.2692H0.383124V3.68095C0.360805 2.79459 0.385005 1.90766 0.455624 1.02383C0.486436 0.982141 5.58862 0.962204 11.7747 0.973079L23.0321 1.00389L23.0647 3.62839Z" fill="#007ACC"/>
</svg>
